<mxfile host="65bd71144e">
    <diagram id="atENPhH2NUAy_5dnmolO" name="Page-1">
        <mxGraphModel dx="804" dy="382" grid="1" gridSize="10" guides="1" tooltips="1" connect="1" arrows="1" fold="1" page="1" pageScale="1" pageWidth="1169" pageHeight="827" math="0" shadow="0">
            <root>
                <mxCell id="0"/>
                <mxCell id="1" parent="0"/>
                <mxCell id="UOKjDGIfQb2OCm12poKL-2" value="&lt;div&gt;Holoeye:&lt;/div&gt;" style="text;html=1;strokeColor=none;fillColor=none;align=center;verticalAlign=middle;whiteSpace=wrap;rounded=0;" parent="1" vertex="1">
                    <mxGeometry x="100" y="120" width="60" height="40" as="geometry"/>
                </mxCell>
                <mxCell id="UOKjDGIfQb2OCm12poKL-17" value="" style="edgeStyle=orthogonalEdgeStyle;rounded=0;orthogonalLoop=1;jettySize=auto;html=1;" parent="1" source="UOKjDGIfQb2OCm12poKL-4" target="UOKjDGIfQb2OCm12poKL-6" edge="1">
                    <mxGeometry relative="1" as="geometry"/>
                </mxCell>
                <mxCell id="UOKjDGIfQb2OCm12poKL-4" value="&lt;div&gt;Phase pattern&lt;/div&gt;" style="text;html=1;align=center;verticalAlign=middle;whiteSpace=wrap;rounded=0;strokeColor=default;" parent="1" vertex="1">
                    <mxGeometry x="180" y="120" width="60" height="40" as="geometry"/>
                </mxCell>
                <mxCell id="UOKjDGIfQb2OCm12poKL-5" value="Amplitude" style="text;html=1;strokeColor=default;fillColor=none;align=center;verticalAlign=middle;whiteSpace=wrap;rounded=0;" parent="1" vertex="1">
                    <mxGeometry x="560" y="120" width="80" height="40" as="geometry"/>
                </mxCell>
                <mxCell id="UOKjDGIfQb2OCm12poKL-18" value="" style="edgeStyle=orthogonalEdgeStyle;rounded=0;orthogonalLoop=1;jettySize=auto;html=1;" parent="1" source="UOKjDGIfQb2OCm12poKL-6" target="UOKjDGIfQb2OCm12poKL-7" edge="1">
                    <mxGeometry relative="1" as="geometry"/>
                </mxCell>
                <mxCell id="UOKjDGIfQb2OCm12poKL-6" value="FT" style="text;html=1;align=center;verticalAlign=middle;whiteSpace=wrap;rounded=0;strokeColor=none;" parent="1" vertex="1">
                    <mxGeometry x="320" y="120" width="40" height="40" as="geometry"/>
                </mxCell>
                <mxCell id="UOKjDGIfQb2OCm12poKL-19" value="" style="edgeStyle=orthogonalEdgeStyle;rounded=0;orthogonalLoop=1;jettySize=auto;html=1;" parent="1" source="UOKjDGIfQb2OCm12poKL-7" target="UOKjDGIfQb2OCm12poKL-5" edge="1">
                    <mxGeometry relative="1" as="geometry"/>
                </mxCell>
                <mxCell id="UOKjDGIfQb2OCm12poKL-7" value="S" style="text;html=1;align=center;verticalAlign=middle;whiteSpace=wrap;rounded=0;strokeColor=none;" parent="1" vertex="1">
                    <mxGeometry x="440" y="120" width="40" height="40" as="geometry"/>
                </mxCell>
                <mxCell id="UOKjDGIfQb2OCm12poKL-8" value="Neural Holography:" style="text;html=1;strokeColor=none;fillColor=none;align=center;verticalAlign=middle;whiteSpace=wrap;rounded=0;" parent="1" vertex="1">
                    <mxGeometry x="100" y="250" width="60" height="40" as="geometry"/>
                </mxCell>
                <mxCell id="UOKjDGIfQb2OCm12poKL-20" value="" style="edgeStyle=orthogonalEdgeStyle;rounded=0;orthogonalLoop=1;jettySize=auto;html=1;" parent="1" source="UOKjDGIfQb2OCm12poKL-9" target="UOKjDGIfQb2OCm12poKL-13" edge="1">
                    <mxGeometry relative="1" as="geometry"/>
                </mxCell>
                <mxCell id="UOKjDGIfQb2OCm12poKL-9" value="&lt;div&gt;Phase pattern&lt;/div&gt;" style="text;html=1;align=center;verticalAlign=middle;whiteSpace=wrap;rounded=0;strokeColor=default;" parent="1" vertex="1">
                    <mxGeometry x="180" y="250" width="60" height="40" as="geometry"/>
                </mxCell>
                <mxCell id="UOKjDGIfQb2OCm12poKL-10" value="Amplitude" style="text;html=1;strokeColor=default;fillColor=none;align=center;verticalAlign=middle;whiteSpace=wrap;rounded=0;" parent="1" vertex="1">
                    <mxGeometry x="560" y="250" width="80" height="40" as="geometry"/>
                </mxCell>
                <mxCell id="UOKjDGIfQb2OCm12poKL-28" style="edgeStyle=orthogonalEdgeStyle;rounded=0;orthogonalLoop=1;jettySize=auto;html=1;exitX=1;exitY=0.5;exitDx=0;exitDy=0;entryX=0;entryY=0.5;entryDx=0;entryDy=0;" parent="1" source="UOKjDGIfQb2OCm12poKL-11" target="UOKjDGIfQb2OCm12poKL-15" edge="1">
                    <mxGeometry relative="1" as="geometry"/>
                </mxCell>
                <mxCell id="UOKjDGIfQb2OCm12poKL-11" value="FT" style="text;html=1;align=center;verticalAlign=middle;whiteSpace=wrap;rounded=0;strokeColor=none;" parent="1" vertex="1">
                    <mxGeometry x="320" y="250" width="40" height="40" as="geometry"/>
                </mxCell>
                <mxCell id="UOKjDGIfQb2OCm12poKL-30" style="edgeStyle=orthogonalEdgeStyle;rounded=0;orthogonalLoop=1;jettySize=auto;html=1;exitX=1;exitY=0.5;exitDx=0;exitDy=0;entryX=0;entryY=0.5;entryDx=0;entryDy=0;" parent="1" source="UOKjDGIfQb2OCm12poKL-12" target="UOKjDGIfQb2OCm12poKL-16" edge="1">
                    <mxGeometry relative="1" as="geometry"/>
                </mxCell>
                <mxCell id="UOKjDGIfQb2OCm12poKL-12" value="IFT" style="text;html=1;align=center;verticalAlign=middle;whiteSpace=wrap;rounded=0;strokeColor=none;" parent="1" vertex="1">
                    <mxGeometry x="440" y="250" width="40" height="40" as="geometry"/>
                </mxCell>
                <mxCell id="UOKjDGIfQb2OCm12poKL-27" style="edgeStyle=orthogonalEdgeStyle;rounded=0;orthogonalLoop=1;jettySize=auto;html=1;exitX=1;exitY=0.5;exitDx=0;exitDy=0;entryX=0;entryY=0.5;entryDx=0;entryDy=0;" parent="1" source="UOKjDGIfQb2OCm12poKL-13" target="UOKjDGIfQb2OCm12poKL-11" edge="1">
                    <mxGeometry relative="1" as="geometry"/>
                </mxCell>
                <mxCell id="UOKjDGIfQb2OCm12poKL-13" value="IS" style="text;html=1;align=center;verticalAlign=middle;whiteSpace=wrap;rounded=0;strokeColor=none;" parent="1" vertex="1">
                    <mxGeometry x="260" y="250" width="40" height="40" as="geometry"/>
                </mxCell>
                <mxCell id="UOKjDGIfQb2OCm12poKL-29" style="edgeStyle=orthogonalEdgeStyle;rounded=0;orthogonalLoop=1;jettySize=auto;html=1;exitX=1;exitY=0.5;exitDx=0;exitDy=0;entryX=0;entryY=0.5;entryDx=0;entryDy=0;" parent="1" source="UOKjDGIfQb2OCm12poKL-15" target="UOKjDGIfQb2OCm12poKL-12" edge="1">
                    <mxGeometry relative="1" as="geometry"/>
                </mxCell>
                <mxCell id="UOKjDGIfQb2OCm12poKL-15" value="H" style="text;html=1;align=center;verticalAlign=middle;whiteSpace=wrap;rounded=0;strokeColor=none;" parent="1" vertex="1">
                    <mxGeometry x="380" y="250" width="40" height="40" as="geometry"/>
                </mxCell>
                <mxCell id="UOKjDGIfQb2OCm12poKL-31" style="edgeStyle=orthogonalEdgeStyle;rounded=0;orthogonalLoop=1;jettySize=auto;html=1;exitX=1;exitY=0.5;exitDx=0;exitDy=0;entryX=0;entryY=0.5;entryDx=0;entryDy=0;" parent="1" source="UOKjDGIfQb2OCm12poKL-16" target="UOKjDGIfQb2OCm12poKL-10" edge="1">
                    <mxGeometry relative="1" as="geometry"/>
                </mxCell>
                <mxCell id="UOKjDGIfQb2OCm12poKL-16" value="S" style="text;html=1;align=center;verticalAlign=middle;whiteSpace=wrap;rounded=0;strokeColor=none;" parent="1" vertex="1">
                    <mxGeometry x="500" y="250" width="40" height="40" as="geometry"/>
                </mxCell>
                <mxCell id="UOKjDGIfQb2OCm12poKL-32" value="" style="endArrow=none;html=1;rounded=0;endFill=0;" parent="1" edge="1">
                    <mxGeometry width="50" height="50" relative="1" as="geometry">
                        <mxPoint x="210" y="100" as="sourcePoint"/>
                        <mxPoint x="600" y="100" as="targetPoint"/>
                    </mxGeometry>
                </mxCell>
                <mxCell id="UOKjDGIfQb2OCm12poKL-33" value="" style="endArrow=none;html=1;rounded=0;endFill=0;" parent="1" edge="1">
                    <mxGeometry width="50" height="50" relative="1" as="geometry">
                        <mxPoint x="210" y="230" as="sourcePoint"/>
                        <mxPoint x="600" y="230" as="targetPoint"/>
                    </mxGeometry>
                </mxCell>
                <mxCell id="UOKjDGIfQb2OCm12poKL-34" value="&lt;div&gt;Fraunhofer&lt;/div&gt;" style="text;html=1;strokeColor=none;fillColor=none;align=center;verticalAlign=middle;whiteSpace=wrap;rounded=0;" parent="1" vertex="1">
                    <mxGeometry x="370" y="60" width="60" height="40" as="geometry"/>
                </mxCell>
                <mxCell id="UOKjDGIfQb2OCm12poKL-35" value="Angular spectrum method" style="text;html=1;strokeColor=none;fillColor=none;align=center;verticalAlign=middle;whiteSpace=wrap;rounded=0;" parent="1" vertex="1">
                    <mxGeometry x="305" y="190" width="190" height="40" as="geometry"/>
                </mxCell>
                <mxCell id="UOKjDGIfQb2OCm12poKL-36" value="" style="endArrow=none;html=1;rounded=0;exitX=0.5;exitY=0;exitDx=0;exitDy=0;" parent="1" source="UOKjDGIfQb2OCm12poKL-9" edge="1">
                    <mxGeometry width="50" height="50" relative="1" as="geometry">
                        <mxPoint x="510" y="340" as="sourcePoint"/>
                        <mxPoint x="210" y="230" as="targetPoint"/>
                    </mxGeometry>
                </mxCell>
                <mxCell id="UOKjDGIfQb2OCm12poKL-37" value="" style="endArrow=classic;html=1;rounded=0;entryX=0.5;entryY=0;entryDx=0;entryDy=0;" parent="1" target="UOKjDGIfQb2OCm12poKL-10" edge="1">
                    <mxGeometry width="50" height="50" relative="1" as="geometry">
                        <mxPoint x="600" y="230" as="sourcePoint"/>
                        <mxPoint x="560" y="250" as="targetPoint"/>
                    </mxGeometry>
                </mxCell>
                <mxCell id="UOKjDGIfQb2OCm12poKL-38" value="" style="endArrow=classic;html=1;rounded=0;entryX=0.5;entryY=0;entryDx=0;entryDy=0;" parent="1" target="UOKjDGIfQb2OCm12poKL-5" edge="1">
                    <mxGeometry width="50" height="50" relative="1" as="geometry">
                        <mxPoint x="600" y="100" as="sourcePoint"/>
                        <mxPoint x="610" y="250" as="targetPoint"/>
                    </mxGeometry>
                </mxCell>
                <mxCell id="UOKjDGIfQb2OCm12poKL-40" value="" style="endArrow=none;html=1;rounded=0;exitX=0.5;exitY=0;exitDx=0;exitDy=0;" parent="1" source="UOKjDGIfQb2OCm12poKL-4" edge="1">
                    <mxGeometry width="50" height="50" relative="1" as="geometry">
                        <mxPoint x="220" y="250" as="sourcePoint"/>
                        <mxPoint x="210" y="100" as="targetPoint"/>
                    </mxGeometry>
                </mxCell>
                <mxCell id="2" value="" style="endArrow=none;html=1;" parent="1" edge="1">
                    <mxGeometry width="50" height="50" relative="1" as="geometry">
                        <mxPoint x="89" y="180" as="sourcePoint"/>
                        <mxPoint x="659" y="180" as="targetPoint"/>
                    </mxGeometry>
                </mxCell>
            </root>
        </mxGraphModel>
    </diagram>
</mxfile>